<svg width="270" height="129" viewBox="0 0 270 129" fill="none" xmlns="http://www.w3.org/2000/svg">
<rect width="270" height="129" fill="white"/>
<path d="M-2554 -17098H-267V-17100H-2554V-17098ZM-266 -17097V1697H-264V-17097H-266ZM-267 1698H-2554V1700H-267V1698ZM-2555 1697V-17097H-2557V1697H-2555ZM-2554 1698C-2554.55 1698 -2555 1697.55 -2555 1697H-2557C-2557 1698.66 -2555.66 1700 -2554 1700V1698ZM-266 1697C-266 1697.55 -266.448 1698 -267 1698V1700C-265.343 1700 -264 1698.66 -264 1697H-266ZM-267 -17098C-266.448 -17098 -266 -17097.6 -266 -17097H-264C-264 -17098.7 -265.343 -17100 -267 -17100V-17098ZM-2554 -17100C-2555.66 -17100 -2557 -17098.7 -2557 -17097H-2555C-2555 -17097.6 -2554.55 -17098 -2554 -17098V-17100Z" fill="black" fill-opacity="0.1"/>
<path d="M59.344 16.2H92.624L93.264 28.872H92.112C90.32 24.5627 88.4427 21.6187 86.48 20.04C84.5173 18.4187 81.6373 17.608 77.84 17.608H75.6V37.384H77.776C79.7813 37.384 81.4667 36.6373 82.832 35.144C84.1973 33.608 85.1573 31.56 85.712 29H86.672V47.944H85.584C84.816 44.744 83.7707 42.4613 82.448 41.096C81.168 39.7307 79.3973 39.048 77.136 39.048H75.6V59.592H78.032C81.9573 59.592 85.2853 58.4187 88.016 56.072C90.7893 53.7253 92.688 50.7173 93.712 47.048H94.992L94.48 61H59.344V59.592H63.12V17.608H59.344V16.2ZM98.3215 13H114.002V59.848H117.586V61H98.5775V59.848H102.098V14.152H98.3215V13ZM128.236 26.12C125.974 26.12 124.353 25.544 123.372 24.392C122.433 23.24 121.964 21.8107 121.964 20.104C121.964 18.3973 122.476 16.9893 123.5 15.88C124.566 14.7707 126.166 14.216 128.3 14.216C130.433 14.216 132.054 14.728 133.164 15.752C134.273 16.7333 134.828 18.1627 134.828 20.04C134.828 21.8747 134.294 23.3467 133.228 24.456C132.161 25.5653 130.497 26.12 128.236 26.12ZM118.572 30.536H134.252V59.848H137.836V61H118.828V59.848H122.348V31.688H118.572V30.536ZM159.3 60.296C161.433 60.296 163.311 59.72 164.932 58.568C166.596 57.416 167.428 55.688 167.428 53.384C167.428 51.0373 166.532 49.2453 164.74 48.008C162.991 46.7707 160.473 45.704 157.188 44.808C153.945 43.8693 151.577 43.0587 150.084 42.376C148.633 41.6933 147.247 40.7973 145.924 39.688C143.279 37.4693 141.956 34.0347 141.956 29.384C141.956 25.5867 143.3 22.3227 145.988 19.592C148.719 16.8613 152.431 15.496 157.124 15.496C159.385 15.496 161.732 15.8373 164.164 16.52C166.639 17.16 168.175 17.48 168.772 17.48C169.369 17.48 169.903 17.0533 170.372 16.2H171.076L171.524 29.128H170.5C168.452 25.416 166.297 22.4507 164.036 20.232C161.817 17.9707 159.385 16.84 156.74 16.84C154.137 16.84 152.111 17.4587 150.66 18.696C149.209 19.8907 148.484 21.512 148.484 23.56C148.484 25.5653 149.337 27.1227 151.044 28.232C152.793 29.2987 154.927 30.1733 157.444 30.856C159.961 31.5387 161.604 32.008 162.372 32.264C163.183 32.52 164.164 32.8827 165.316 33.352C166.511 33.7787 167.471 34.248 168.196 34.76C168.964 35.2293 169.753 35.848 170.564 36.616C171.417 37.3413 172.079 38.152 172.548 39.048C173.7 41.096 174.276 43.528 174.276 46.344C174.276 50.952 172.825 54.664 169.924 57.48C167.065 60.2533 163.289 61.64 158.596 61.64C156.164 61.64 153.369 61.32 150.212 60.68C147.097 60.04 145.369 59.72 145.028 59.72C144.431 59.72 143.855 60.36 143.3 61.64H142.404L141.764 46.408H142.852C144.729 50.12 147.119 53.3627 150.02 56.136C152.964 58.9093 156.057 60.296 159.3 60.296ZM180.715 51.848V31.688H177.195V30.536H180.715V22.28L192.619 19.336V30.536H200.939V31.688H192.619V53.256C192.619 55.2613 192.811 56.7333 193.195 57.672C193.622 58.6107 194.475 59.08 195.755 59.08C197.035 59.08 198.144 58.44 199.083 57.16C200.064 55.88 200.704 54.1307 201.003 51.912L202.091 52.04C201.75 54.984 200.811 57.3307 199.275 59.08C197.739 60.7867 195.2 61.64 191.659 61.64C188.118 61.64 185.408 60.936 183.531 59.528C181.654 58.12 180.715 55.56 180.715 51.848ZM224.079 32.328C222.5 32.328 221.113 33.352 219.919 35.4C218.724 37.448 218.127 39.88 218.127 42.696V59.848H222.671V61H202.703V59.848H206.223V31.688H202.703V30.536H218.127V36.68C218.681 34.504 219.748 32.84 221.327 31.688C222.905 30.4933 224.697 29.896 226.703 29.896C228.708 29.896 230.329 30.472 231.567 31.624C232.847 32.7333 233.487 34.3333 233.487 36.424C233.487 38.472 233.017 40.0507 232.079 41.16C231.14 42.2693 229.689 42.824 227.727 42.824C225.807 42.824 224.377 42.184 223.439 40.904C222.543 39.624 222.436 37.8533 223.119 35.592H225.423C226.489 33.416 226.041 32.328 224.079 32.328ZM103.696 81.832C103.696 90.6213 101.221 96.744 96.272 100.2C91.7067 103.4 85.4347 105 77.456 105H59.344V103.784H63.568V61.416H59.344V60.2H79.12C87.312 60.2 93.456 61.8853 97.552 65.256C101.648 68.584 103.696 74.1093 103.696 81.832ZM76.048 103.784H78.48C82.7893 103.784 85.8613 102.269 87.696 99.24C89.5733 96.168 90.512 91.048 90.512 83.88V80.168C90.512 70.568 88.6773 64.7867 85.008 62.824C83.2587 61.8853 80.784 61.416 77.584 61.416H76.048V103.784ZM123.785 105.64C118.281 105.64 114.142 104.232 111.369 101.416C108.638 98.5573 107.273 94.6107 107.273 89.576C107.273 84.4987 108.809 80.616 111.881 77.928C114.995 75.24 118.942 73.896 123.721 73.896C133.406 73.896 138.057 78.76 137.673 88.488H119.625V90.984C119.625 95.1653 120.158 98.3227 121.225 100.456C122.291 102.589 124.147 103.656 126.793 103.656C131.742 103.656 134.985 101.011 136.521 95.72L137.673 95.912C136.862 98.984 135.39 101.373 133.257 103.08C131.166 104.787 128.009 105.64 123.785 105.64ZM119.689 87.208H126.281V84.072C126.281 80.616 126.067 78.2693 125.641 77.032C125.257 75.752 124.446 75.112 123.208 75.112C122.014 75.112 121.118 75.7947 120.521 77.16C119.966 78.4827 119.689 80.7867 119.689 84.072V87.208ZM140.799 105.64V94.184H141.568C142.677 97.896 144.17 100.499 146.048 101.992C147.925 103.485 150.272 104.232 153.088 104.232C157.44 104.232 159.616 102.845 159.616 100.072C159.616 98.8773 159.082 97.9813 158.016 97.384C156.352 96.4453 154.218 95.72 151.616 95.208C148.714 94.44 146.282 93.416 144.32 92.136C141.973 90.6 140.799 88.168 140.799 84.84C140.799 81.512 141.823 78.8667 143.872 76.904C145.92 74.8987 148.65 73.896 152.064 73.896C154.154 73.896 156.309 74.3867 158.528 75.368C159.338 75.7093 159.957 75.88 160.384 75.88C160.81 75.88 161.173 75.7307 161.472 75.432C161.77 75.1333 162.133 74.5787 162.56 73.768H163.264V83.56H162.496C160.32 78.0133 156.949 75.24 152.384 75.24C150.378 75.24 148.885 75.6027 147.904 76.328C146.922 77.0107 146.432 77.8853 146.432 78.952C146.432 79.592 146.581 80.104 146.88 80.488C147.178 80.8293 147.413 81.0853 147.584 81.256C147.754 81.4267 148.032 81.6187 148.416 81.832C148.8 82.0027 149.12 82.152 149.376 82.28C149.632 82.3653 150.016 82.4933 150.528 82.664C151.082 82.8347 151.488 82.9413 151.744 82.984C154.645 83.7093 156.736 84.3493 158.016 84.904C159.296 85.416 160.512 86.056 161.664 86.824C164.01 88.4453 165.184 91.0693 165.184 94.696C165.184 98.28 164.117 101.011 161.984 102.888C159.85 104.723 156.928 105.64 153.216 105.64C150.57 105.64 148.01 105.021 145.536 103.784C145.024 103.443 144.618 103.272 144.32 103.272C143.381 103.272 142.464 104.061 141.568 105.64H140.799ZM176.486 70.12C174.224 70.12 172.603 69.544 171.622 68.392C170.683 67.24 170.214 65.8107 170.214 64.104C170.214 62.3973 170.726 60.9893 171.75 59.88C172.816 58.7707 174.416 58.216 176.55 58.216C178.683 58.216 180.304 58.728 181.414 59.752C182.523 60.7333 183.078 62.1627 183.078 64.04C183.078 65.8747 182.544 67.3467 181.478 68.456C180.411 69.5653 178.747 70.12 176.486 70.12ZM166.822 74.536H182.502V103.848H186.086V105H167.078V103.848H170.598V75.688H166.822V74.536ZM213.054 71.208L214.846 70.12C215.102 68.7973 214.59 68.136 213.31 68.136C211.475 68.136 210.558 69.544 210.558 72.36C210.558 73.4693 210.707 74.7493 211.006 76.2C214.249 78.376 215.87 81.1707 215.87 84.584C215.87 87.9547 214.697 90.5787 212.35 92.456C210.003 94.3333 206.825 95.272 202.814 95.272C201.15 95.272 199.422 95.1013 197.63 94.76C195.753 95.9547 194.814 96.8507 194.814 97.448C194.814 98.0453 196.179 98.344 198.91 98.344H205.438C215.123 98.344 219.966 101.821 219.966 108.776C219.966 112.531 218.494 115.496 215.55 117.672C212.649 119.891 208.105 121 201.918 121C191.379 121 186.11 118.717 186.11 114.152C186.11 111.677 187.753 109.971 191.038 109.032L194.878 110.76C194.537 111.997 194.366 113.171 194.366 114.28C194.366 117.949 197.097 119.784 202.558 119.784C205.886 119.784 208.446 119.165 210.238 117.928C212.03 116.691 212.926 115.155 212.926 113.32C212.926 111.485 212.371 110.248 211.262 109.608C210.195 109.011 208.041 108.712 204.798 108.712H198.59C195.134 108.712 192.659 108.136 191.166 106.984C189.673 105.832 188.926 104.424 188.926 102.76C188.926 101.053 189.459 99.6453 190.526 98.536C191.593 97.384 193.491 95.976 196.222 94.312C191.273 92.904 188.798 89.6613 188.798 84.584C188.798 81.384 189.95 78.8027 192.254 76.84C194.558 74.8773 198.014 73.896 202.622 73.896C205.395 73.896 207.763 74.4293 209.726 75.496C209.47 74.344 209.342 73.2987 209.342 72.36C209.342 69.9707 209.982 68.2427 211.262 67.176C212.542 66.1093 213.971 65.576 215.55 65.576C217.129 65.576 218.387 66.0027 219.326 66.856C220.307 67.6667 220.798 68.7973 220.798 70.248C220.798 71.6987 220.414 72.7867 219.646 73.512C218.878 74.1947 217.939 74.536 216.83 74.536C215.763 74.536 214.867 74.2587 214.142 73.704C213.459 73.1067 213.097 72.2747 213.054 71.208ZM199.486 83.176V86.632C199.486 89.4907 199.721 91.432 200.19 92.456C200.702 93.48 201.449 93.992 202.43 93.992C203.454 93.992 204.179 93.5013 204.606 92.52C205.075 91.496 205.31 89.4267 205.31 86.312V83.176C205.31 79.848 205.097 77.672 204.67 76.648C204.243 75.5813 203.518 75.048 202.494 75.048C201.513 75.048 200.766 75.6027 200.254 76.712C199.742 77.7787 199.486 79.9333 199.486 83.176ZM220.956 74.536H236.38V80.424C237.062 78.4613 238.108 76.8827 239.516 75.688C240.924 74.4933 243.057 73.896 245.916 73.896C252.529 73.896 255.836 77.4587 255.836 84.584V103.848H259.42V105H241.308V103.848H243.932V83.048C243.932 80.488 243.761 78.8453 243.42 78.12C243.078 77.352 242.46 76.968 241.564 76.968C240.198 76.968 238.982 77.864 237.916 79.656C236.892 81.448 236.38 83.624 236.38 86.184V103.848H239.132V105H220.956V103.848H224.476V75.688H220.956V74.536Z" fill="#DE495F"/>
<g opacity="0.5">
<path d="M90.5 81.0002C91 63.5001 85.1667 62.3335 81 61.5001C102 59 104 75.5008 103.5 80.9997C104.5 94.5008 97 105 82 103.5C84 103 91.5 101.5 90.5 81.0002Z" fill="#FFC301"/>
<path d="M63.1689 104.869V15.1328C66.1635 15.7985 69.0916 16.7305 71.8865 17.9953V102.073C69.1581 103.272 66.2301 104.27 63.1689 104.869Z" fill="#FFC301"/>
<path d="M53.1873 106V14C54.7844 14 56.3149 14.0666 57.8455 14.2663V105.8C56.3149 105.933 54.7844 106 53.1873 106Z" fill="#FFC301"/>
<path d="M54.9837 14C29.5629 14 9 34.5702 9 60C9 85.4298 29.5629 106 54.9837 106V83.8321V14Z" fill="url(#paint0_linear_0_1)"/>
</g>
<defs>
<linearGradient id="paint0_linear_0_1" x1="11.1058" y1="60.0124" x2="56.9769" y2="60.0124" gradientUnits="userSpaceOnUse">
<stop stop-color="#BCE4D6" stop-opacity="0.64"/>
<stop offset="1" stop-color="#B9E8DF" stop-opacity="0"/>
</linearGradient>
</defs>
</svg>
